<svg xmlns="http://www.w3.org/2000/svg" width="640" height="420" viewBox="0 0 640 420" fill="none">
  <!-- 지면선 -->
  <line x1="20" y1="360" x2="620" y2="360" stroke="#f2b705" stroke-opacity="0.34" stroke-width="1.4"/>

  <!-- 건물 1: 낮은 평지붕 건물 -->
  <rect x="60" y="300" width="70" height="60" stroke="#f2b705" stroke-opacity="0.26" stroke-width="1.3"/>

  <!-- 건물 2: 박공지붕 주택 -->
  <path d="M170 360 V260 L205 230 L240 260 V360" stroke="#f2b705" stroke-opacity="0.28" stroke-width="1.3"/>

  <!-- 건물 3: 가장 높은 커튼월 빌딩 (격자창) -->
  <rect x="280" y="150" width="90" height="210" stroke="#f2b705" stroke-opacity="0.36" stroke-width="1.4"/>
  <line x1="280" y1="185" x2="370" y2="185" stroke="#f2b705" stroke-opacity="0.22" stroke-width="0.8"/>
  <line x1="280" y1="220" x2="370" y2="220" stroke="#f2b705" stroke-opacity="0.22" stroke-width="0.8"/>
  <line x1="280" y1="255" x2="370" y2="255" stroke="#f2b705" stroke-opacity="0.22" stroke-width="0.8"/>
  <line x1="280" y1="290" x2="370" y2="290" stroke="#f2b705" stroke-opacity="0.22" stroke-width="0.8"/>
  <line x1="280" y1="325" x2="370" y2="325" stroke="#f2b705" stroke-opacity="0.22" stroke-width="0.8"/>
  <line x1="325" y1="150" x2="325" y2="360" stroke="#f2b705" stroke-opacity="0.22" stroke-width="0.8"/>

  <!-- 건물 4: 중간 높이 건물 -->
  <rect x="395" y="240" width="60" height="120" stroke="#f2b705" stroke-opacity="0.26" stroke-width="1.3"/>

  <!-- 건물 5: 경사지붕 주택 -->
  <path d="M480 360 V290 H540 V360" stroke="#f2b705" stroke-opacity="0.24" stroke-width="1.3"/>
  <path d="M472 290 L510 260 L548 290" stroke="#f2b705" stroke-opacity="0.26" stroke-width="1.3"/>

  <!-- 치수선 (설계 도면 느낌) -->
  <line x1="60" y1="385" x2="455" y2="385" stroke="#f2b705" stroke-opacity="0.2" stroke-width="0.8"/>
  <line x1="60" y1="379" x2="60" y2="391" stroke="#f2b705" stroke-opacity="0.2" stroke-width="0.8"/>
  <line x1="455" y1="379" x2="455" y2="391" stroke="#f2b705" stroke-opacity="0.2" stroke-width="0.8"/>

  <!-- 컴퍼스(제도 기구) 모티프 -->
  <circle cx="560" cy="90" r="34" stroke="#f2b705" stroke-opacity="0.24" stroke-width="1.2"/>
  <circle cx="560" cy="90" r="2" fill="#f2b705" fill-opacity="0.32"/>
  <line x1="560" y1="90" x2="588" y2="66" stroke="#f2b705" stroke-opacity="0.26" stroke-width="1.2"/>
  <line x1="560" y1="90" x2="536" y2="118" stroke="#f2b705" stroke-opacity="0.26" stroke-width="1.2"/>
</svg>
